<svg width="956" height="956" viewBox="0 0 956 956" fill="none" xmlns="http://www.w3.org/2000/svg">
<path d="M956 478C956 741.992 741.992 956 478 956C214.008 956 0 741.992 0 478C0 214.008 214.008 0 478 0C741.992 0 956 214.008 956 478Z" fill="#020817"/>
<path d="M715.938 286.382C703.798 262.381 674.663 252.781 650.383 264.781L560.55 307.982C553.266 310.383 545.982 310.383 538.698 307.982L436.725 257.581C427.013 252.781 414.874 250.381 405.162 250.381C393.022 250.381 383.31 252.781 373.599 257.581L261.914 312.783C244.918 319.983 235.206 336.783 235.206 355.984V663.192C235.206 670.392 235.206 677.592 240.062 684.793C244.918 696.793 254.63 703.993 269.197 708.793C281.337 713.593 293.477 711.193 305.616 706.393L395.45 663.192C402.734 660.792 410.018 660.792 417.302 663.192L519.275 713.593C528.987 718.393 541.126 720.794 550.838 720.794C562.978 720.794 572.69 718.393 582.401 713.593L694.086 658.392C711.082 651.192 720.794 634.391 720.794 615.191V307.982C720.794 300.782 720.794 293.582 715.938 286.382ZM283.765 663.192V355.984L380.883 307.982V615.191C378.455 615.191 376.027 615.191 373.599 617.591L283.765 660.792V663.192ZM436.725 619.991C434.297 619.991 431.869 619.991 429.441 617.591V307.982L519.275 351.184C521.703 351.184 524.131 351.184 526.559 353.584V660.792L436.725 617.591V619.991ZM672.235 615.191L575.117 663.192V355.984C577.545 355.984 579.973 355.984 582.401 353.584L672.235 310.383V617.591V615.191Z" fill="white" fill-opacity="0.9"/>
</svg>
